<?xml version="1.0" encoding="UTF-8" standalone="no"?>
<!-- Created with Inkscape (http://www.inkscape.org/) -->

<svg
   width="480"
   height="360"
   viewBox="0 0 127 95.250003"
   version="1.1"
   id="svg5"
   sodipodi:docname="grid.svg"
   inkscape:version="1.1 (c4e8f9ed74, 2021-05-24)"
   xmlns:inkscape="http://www.inkscape.org/namespaces/inkscape"
   xmlns:sodipodi="http://sodipodi.sourceforge.net/DTD/sodipodi-0.dtd"
   xmlns="http://www.w3.org/2000/svg"
   xmlns:svg="http://www.w3.org/2000/svg">
  <sodipodi:namedview
     id="namedview7"
     pagecolor="#505050"
     bordercolor="#eeeeee"
     borderopacity="1"
     inkscape:pageshadow="0"
     inkscape:pageopacity="0"
     inkscape:pagecheckerboard="0"
     inkscape:document-units="px"
     showgrid="false"
     width="480px"
     units="px"
     inkscape:zoom="1.1672392"
     inkscape:cx="257.87346"
     inkscape:cy="253.16148"
     inkscape:window-width="2560"
     inkscape:window-height="1367"
     inkscape:window-x="1920"
     inkscape:window-y="0"
     inkscape:window-maximized="1"
     inkscape:current-layer="layer1"
     showguides="true"
     inkscape:guide-bbox="true">
    <sodipodi:guide
       position="-1.4886475,47.625001"
       orientation="0,1"
       id="guide8690"
       inkscape:label=""
       inkscape:locked="false"
       inkscape:color="rgb(0,0,255)" />
    <sodipodi:guide
       position="63.500001,72.525002"
       orientation="-1,0"
       id="guide8692"
       inkscape:label=""
       inkscape:locked="false"
       inkscape:color="rgb(0,0,255)" />
  </sodipodi:namedview>
  <defs
     id="defs2">
    <radialGradient
       id="SVGID_4_"
       gradientUnits="userSpaceOnUse"
       cy="158.12"
       cx="158.12"
       r="18"
       gradientTransform="matrix(0.07050533,0,0,0.07050533,100.40276,5.2013389)">
      <stop
         style="stop-color:#7D7D7D"
         offset="0"
         id="stop111" />
      <stop
         style="stop-color:#000000"
         offset="1"
         id="stop113" />
    </radialGradient>
    <radialGradient
       id="SVGID_3_"
       gradientUnits="userSpaceOnUse"
       cy="158.12"
       cx="158.12"
       r="32.400002"
       gradientTransform="matrix(0.07050533,0,0,0.07050533,100.40276,5.2013389)">
      <stop
         style="stop-color:#000000"
         offset=".1963"
         id="stop104" />
      <stop
         style="stop-color:#BABABA"
         offset="1"
         id="stop106" />
    </radialGradient>
    <linearGradient
       id="dark-south_1_"
       y2="245.25"
       gradientUnits="userSpaceOnUse"
       x2="183.19"
       y1="227"
       x1="133.06"
       gradientTransform="matrix(0.07050533,0,0,0.07050533,100.40276,5.2013389)">
      <stop
         style="stop-color:#545454"
         offset="0"
         id="stop95" />
      <stop
         style="stop-color:#D6D6D6"
         offset="1"
         id="stop97" />
    </linearGradient>
    <linearGradient
       id="dark-east_1_"
       y2="178.25"
       gradientUnits="userSpaceOnUse"
       x2="78.718002"
       y1="152.7"
       x1="80.503998"
       gradientTransform="matrix(0.07050533,0,0,0.07050533,100.40276,5.2013389)">
      <stop
         style="stop-color:#545454"
         offset="0"
         id="stop89" />
      <stop
         style="stop-color:#D6D6D6"
         offset="1"
         id="stop91" />
    </linearGradient>
    <linearGradient
       id="dark-north_1_"
       y2="77.285004"
       gradientUnits="userSpaceOnUse"
       x2="143.52"
       y1="82.964996"
       x1="172.74001"
       gradientTransform="matrix(0.07050533,0,0,0.07050533,100.40276,5.2013389)">
      <stop
         style="stop-color:#545454"
         offset="0"
         id="stop83" />
      <stop
         style="stop-color:#D6D6D6"
         offset="1"
         id="stop85" />
    </linearGradient>
    <linearGradient
       id="light-west_1_"
       y2="179.24001"
       gradientUnits="userSpaceOnUse"
       x2="237.23"
       y1="154.05"
       x1="235.91"
       gradientTransform="matrix(0.07050533,0,0,0.07050533,100.40276,5.2013389)">
      <stop
         style="stop-color:#545454"
         offset="0"
         id="stop77" />
      <stop
         style="stop-color:#D6D6D6"
         offset="1"
         id="stop79" />
    </linearGradient>
    <linearGradient
       id="light-northeast_3_"
       y2="128.12"
       gradientUnits="userSpaceOnUse"
       x2="158.12"
       gradientTransform="matrix(-0.07050533,0,0,0.07050533,122.70007,5.2013389)"
       y1="128.12"
       x1="98.125">
      <stop
         style="stop-color:#CCCCCC"
         offset="0"
         id="stop44" />
      <stop
         style="stop-color:#F2F2F2"
         offset="1"
         id="stop46" />
    </linearGradient>
    <linearGradient
       id="light-southeast_3_"
       y2="188.12"
       gradientUnits="userSpaceOnUse"
       x2="158.12"
       gradientTransform="matrix(-0.07050533,0,0,0.07050533,122.70007,5.2013389)"
       y1="188.12"
       x1="98.125">
      <stop
         style="stop-color:#CCCCCC"
         offset="0"
         id="stop50" />
      <stop
         style="stop-color:#F2F2F2"
         offset="1"
         id="stop52" />
    </linearGradient>
    <linearGradient
       id="light-southwest_3_"
       y2="188.12"
       gradientUnits="userSpaceOnUse"
       x2="218.12"
       gradientTransform="matrix(-0.07050533,0,0,0.07050533,122.70007,5.2013389)"
       y1="188.12"
       x1="158.12">
      <stop
         style="stop-color:#CCCCCC"
         offset="0"
         id="stop56" />
      <stop
         style="stop-color:#F2F2F2"
         offset="1"
         id="stop58" />
    </linearGradient>
    <linearGradient
       id="light-northwest_3_"
       y2="128.12"
       gradientUnits="userSpaceOnUse"
       x2="218.12"
       gradientTransform="matrix(-0.07050533,0,0,0.07050533,122.70007,5.2013389)"
       y1="128.12"
       x1="158.12">
      <stop
         style="stop-color:#CCCCCC"
         offset="0"
         id="stop62" />
      <stop
         style="stop-color:#F2F2F2"
         offset="1"
         id="stop64" />
    </linearGradient>
    <linearGradient
       id="SVGID_2_"
       y2="158.12"
       gradientUnits="userSpaceOnUse"
       x2="93.324997"
       y1="158.12"
       x1="222.92"
       gradientTransform="matrix(0.07050533,0,0,0.07050533,100.40276,5.2013389)">
      <stop
         style="stop-color:#ADADAD"
         offset="0"
         id="stop15" />
      <stop
         style="stop-color:#CCCCCC"
         offset="1"
         id="stop17" />
    </linearGradient>
    <linearGradient
       id="SVGID_1_"
       y2="158.12"
       gradientUnits="userSpaceOnUse"
       x2="244.48"
       y1="158.12"
       x1="71.764999"
       gradientTransform="matrix(0.07050533,0,0,0.07050533,100.40276,5.2013389)">
      <stop
         style="stop-color:#9E9E9E"
         offset="0"
         id="stop8" />
      <stop
         style="stop-color:#DBDBDB"
         offset="1"
         id="stop10" />
    </linearGradient>
    <linearGradient
       id="linearGradient194"
       y2="128.12"
       gradientUnits="userSpaceOnUse"
       x2="158.12"
       gradientTransform="matrix(-1,0,0,1,316.25,0)"
       y1="128.12"
       x1="98.125">
      <stop
         style="stop-color:#CCCCCC"
         offset="0"
         id="stop190" />
      <stop
         style="stop-color:#F2F2F2"
         offset="1"
         id="stop192" />
    </linearGradient>
    <linearGradient
       id="linearGradient201"
       y2="188.12"
       gradientUnits="userSpaceOnUse"
       x2="158.12"
       gradientTransform="matrix(-1,0,0,1,316.25,0)"
       y1="188.12"
       x1="98.125">
      <stop
         style="stop-color:#CCCCCC"
         offset="0"
         id="stop197" />
      <stop
         style="stop-color:#F2F2F2"
         offset="1"
         id="stop199" />
    </linearGradient>
    <linearGradient
       id="linearGradient208"
       y2="188.12"
       gradientUnits="userSpaceOnUse"
       x2="218.12"
       gradientTransform="matrix(-1,0,0,1,316.25,0)"
       y1="188.12"
       x1="158.12">
      <stop
         style="stop-color:#CCCCCC"
         offset="0"
         id="stop204" />
      <stop
         style="stop-color:#F2F2F2"
         offset="1"
         id="stop206" />
    </linearGradient>
    <linearGradient
       id="linearGradient215"
       y2="128.12"
       gradientUnits="userSpaceOnUse"
       x2="218.12"
       gradientTransform="matrix(-1,0,0,1,316.25,0)"
       y1="128.12"
       x1="158.12">
      <stop
         style="stop-color:#CCCCCC"
         offset="0"
         id="stop211" />
      <stop
         style="stop-color:#F2F2F2"
         offset="1"
         id="stop213" />
    </linearGradient>
  </defs>
  <g
     inkscape:label="Ebene 1"
     inkscape:groupmode="layer"
     id="layer1">
    <rect
       style="fill:#fff6d5;stroke:#000000;stroke-width:0.264583;stroke-opacity:1;stop-color:#000000"
       id="rect8826"
       width="131.20554"
       height="99.090073"
       x="-1.8816559"
       y="-0.79916263" />
    <g
       inkscape:label="GridCartesian:X10:Y8"
       transform="translate(-2.6594809,-5.2916995)"
       id="g8742"
       style="stroke:#808080">
      <g
         inkscape:label="MajorXGridlines"
         id="g8722"
         style="stroke:#808080">
        <path
           style="fill:none;stroke:#808080;stroke-width:0.264583"
           d="M 13.2292,0 V 105.833"
           inkscape:label="MajorXDiv1"
           id="path8704" />
        <path
           style="fill:none;stroke:#808080;stroke-width:0.264583"
           d="M 26.4583,0 V 105.833"
           inkscape:label="MajorXDiv2"
           id="path8706" />
        <path
           style="fill:none;stroke:#808080;stroke-width:0.264583"
           d="M 39.6875,0 V 105.833"
           inkscape:label="MajorXDiv3"
           id="path8708" />
        <path
           style="fill:none;stroke:#808080;stroke-width:0.264583"
           d="M 52.9167,0 V 105.833"
           inkscape:label="MajorXDiv4"
           id="path8710" />
        <path
           style="fill:none;stroke:#808080;stroke-width:0.264583"
           d="M 66.1458,0 V 105.833"
           inkscape:label="MajorXDiv5"
           id="path8712" />
        <path
           style="fill:none;stroke:#808080;stroke-width:0.264583"
           d="M 79.375,0 V 105.833"
           inkscape:label="MajorXDiv6"
           id="path8714" />
        <path
           style="fill:none;stroke:#808080;stroke-width:0.264583"
           d="M 92.6042,0 V 105.833"
           inkscape:label="MajorXDiv7"
           id="path8716" />
        <path
           style="fill:none;stroke:#808080;stroke-width:0.264583"
           d="M 105.833,0 V 105.833"
           inkscape:label="MajorXDiv8"
           id="path8718" />
        <path
           style="fill:none;stroke:#808080;stroke-width:0.264583"
           d="M 119.062,0 V 105.833"
           inkscape:label="MajorXDiv9"
           id="path8720" />
      </g>
      <g
         inkscape:label="MajorYGridlines"
         id="g8738"
         style="stroke:#808080">
        <path
           style="fill:none;stroke:#808080;stroke-width:0.264583"
           d="M 0,13.2292 H 132.292"
           inkscape:label="MajorYDiv1"
           id="path8724" />
        <path
           style="fill:none;stroke:#808080;stroke-width:0.264583"
           d="M 0,26.4583 H 132.292"
           inkscape:label="MajorYDiv2"
           id="path8726" />
        <path
           style="fill:none;stroke:#808080;stroke-width:0.264583"
           d="M 0,39.6875 H 132.292"
           inkscape:label="MajorYDiv3"
           id="path8728" />
        <path
           style="fill:none;stroke:#808080;stroke-width:0.264583"
           d="M 0,52.9167 H 132.292"
           inkscape:label="MajorYDiv4"
           id="path8730" />
        <path
           style="fill:none;stroke:#808080;stroke-width:0.264583"
           d="M 0,66.1458 H 132.292"
           inkscape:label="MajorYDiv5"
           id="path8732" />
        <path
           style="fill:none;stroke:#808080;stroke-width:0.264583"
           d="M 0,79.375 H 132.292"
           inkscape:label="MajorYDiv6"
           id="path8734" />
        <path
           style="fill:none;stroke:#808080;stroke-width:0.264583"
           d="M 0,92.6042 H 132.292"
           inkscape:label="MajorYDiv7"
           id="path8736" />
      </g>
      <rect
         x="0"
         y="0"
         width="132.29167"
         height="105.83334"
         style="fill:none;stroke:#808080;stroke-width:0.264583"
         inkscape:label="Border"
         id="rect8740" />
    </g>
    <path
       style="fill:#800000;stroke:#800000;stroke-width:0.529167;stroke-linecap:butt;stroke-linejoin:miter;stroke-miterlimit:4;stroke-dasharray:none;stroke-opacity:1"
       d="M 63.500002,-1.4805039 V 105.08798"
       id="path18948" />
    <path
       style="fill:#800000;stroke:#800000;stroke-width:0.529167;stroke-linecap:butt;stroke-linejoin:miter;stroke-miterlimit:4;stroke-dasharray:none;stroke-opacity:1"
       d="M -8.4143625,47.625 H 135.62445"
       id="path19129" />
    <text
       xml:space="preserve"
       style="font-size:4.23333px;line-height:1.25;font-family:'Liberation Sans';-inkscape-font-specification:'Liberation Sans, Normal';letter-spacing:0px;word-spacing:0px;stroke-width:0.264583"
       x="56.36512"
       y="46.273319"
       id="text22345"><tspan
         sodipodi:role="line"
         id="tspan22343"
         style="stroke-width:0.264583"
         x="56.36512"
         y="46.273319" /></text>
    <text
       xml:space="preserve"
       style="font-size:2.64583px;line-height:1.25;font-family:'Liberation Sans';-inkscape-font-specification:'Liberation Sans, Normal';letter-spacing:0px;word-spacing:0px;fill:#333333;stroke:none;stroke-width:0.264583"
       x="3.556731"
       y="50.475964"
       id="text22345-3"><tspan
         sodipodi:role="line"
         id="tspan22343-6"
         style="font-size:2.64583px;fill:#333333;stroke:none;stroke-width:0.264583"
         x="3.556731"
         y="50.475964">-240</tspan></text>
    <text
       xml:space="preserve"
       style="font-size:2.64583px;line-height:1.25;font-family:'Liberation Sans';-inkscape-font-specification:'Liberation Sans, Normal';letter-spacing:0px;word-spacing:0px;fill:#333333;stroke:none;stroke-width:0.264583"
       x="119.36221"
       y="50.475964"
       id="text22345-3-7"><tspan
         sodipodi:role="line"
         id="tspan22343-6-5"
         style="font-size:2.64583px;fill:#333333;stroke:none;stroke-width:0.264583"
         x="119.36221"
         y="50.475964">240</tspan></text>
    <text
       xml:space="preserve"
       style="font-size:2.64583px;line-height:1.25;font-family:'Liberation Sans';-inkscape-font-specification:'Liberation Sans, Normal';letter-spacing:0px;word-spacing:0px;fill:#333333;stroke:none;stroke-width:0.264583"
       x="64.090668"
       y="4.5597792"
       id="text22345-3-3"><tspan
         sodipodi:role="line"
         id="tspan22343-6-56"
         style="font-size:2.64583px;fill:#333333;stroke:none;stroke-width:0.264583"
         x="64.090668"
         y="4.5597792">180</tspan></text>
    <text
       xml:space="preserve"
       style="font-size:2.64583px;line-height:1.25;font-family:'Liberation Sans';-inkscape-font-specification:'Liberation Sans, Normal';letter-spacing:0px;word-spacing:0px;fill:#333333;stroke:none;stroke-width:0.264583"
       x="64.174644"
       y="92.751579"
       id="text22345-3-2"><tspan
         sodipodi:role="line"
         id="tspan22343-6-9"
         style="font-size:2.64583px;fill:#333333;stroke:none;stroke-width:0.264583"
         x="64.174644"
         y="92.751579">-180</tspan></text>
    <circle
       style="opacity:1;fill:none;fill-opacity:1;fill-rule:evenodd;stroke:#800000;stroke-width:0.529167;stroke-linecap:butt;stroke-linejoin:miter;stroke-miterlimit:4;stroke-dasharray:none;stroke-dashoffset:0;stroke-opacity:1"
       id="path43783"
       cx="63.5"
       cy="47.625"
       r="1.820824" />
    <g
       id="g45304"
       transform="translate(-1.9900527,11.682797)">
      <circle
         r="4.5687456"
         cy="16.34964"
         stroke="#9c9c9c"
         cx="111.55106"
         stroke-width="0.0352528"
         fill="url(#SVGID_2_)"
         id="circle20"
         style="fill:#b3b3b3" />
      <g
         stroke-linejoin="round"
         stroke="#000000"
         stroke-linecap="round"
         stroke-width="0.3328"
         fill="#4a4a4a"
         id="g30"
         transform="matrix(0.07050533,0,0,0.07050533,100.40276,5.2013389)">
        <path
           id="light-northeast_2_"
           d="m 158.12,158.12 58.5,27.279 -36.162,-35.41"
           inkscape:connector-curvature="0" />
        <path
           id="light-southeast_2_"
           d="m 158.12,158.12 -27.279,58.5 35.41,-36.162"
           inkscape:connector-curvature="0" />
        <path
           id="light-southwest_2_"
           d="m 158.12,158.12 -58.5,-27.279 36.162,35.41"
           inkscape:connector-curvature="0" />
        <path
           id="light-northwest_2_"
           d="m 158.12,158.12 27.279,-58.5 -35.41,36.162"
           inkscape:connector-curvature="0" />
        <path
           id="dark-northeast_2_"
           d="m 158.12,158.12 58.5,27.279 -50.369,-4.941"
           inkscape:connector-curvature="0"
           stroke-miterlimit="10" />
        <path
           id="dark-southeast_2_"
           d="m 158.12,158.12 -27.279,58.5 4.941,-50.369"
           inkscape:connector-curvature="0"
           stroke-miterlimit="10" />
        <path
           id="dark-southwest_2_"
           d="m 158.12,158.12 -58.5,-27.279 50.37,4.941"
           inkscape:connector-curvature="0"
           stroke-miterlimit="10" />
        <path
           id="dark-northwest_2_"
           d="m 158.12,158.12 27.279,-58.5 -4.941,50.37"
           inkscape:connector-curvature="0"
           stroke-miterlimit="10" />
      </g>
      <g
         stroke-linejoin="round"
         stroke="#000000"
         stroke-linecap="round"
         stroke-width="0.3328"
         fill="#4a4a4a"
         id="g40"
         transform="matrix(0.07050533,0,0,0.07050533,100.40276,5.2013389)">
        <path
           id="light-northeast_1_"
           d="m 158.12,158.12 -27.279,-58.5 4.941,50.37"
           inkscape:connector-curvature="0" />
        <path
           id="light-southeast_1_"
           d="m 158.12,158.12 58.5,-27.279 -50.37,4.941"
           inkscape:connector-curvature="0" />
        <path
           id="light-southwest_1_"
           d="m 158.12,158.12 27.279,58.5 -4.94,-50.37"
           inkscape:connector-curvature="0" />
        <path
           id="light-northwest_1_"
           d="m 158.12,158.12 -58.5,27.279 50.37,-4.94"
           inkscape:connector-curvature="0" />
        <path
           id="dark-northeast_1_"
           d="m 158.12,158.12 -27.279,-58.5 35.409,36.162"
           inkscape:connector-curvature="0"
           stroke-miterlimit="10" />
        <path
           id="dark-southeast_1_"
           d="m 158.12,158.12 58.5,-27.279 -36.161,35.409"
           inkscape:connector-curvature="0"
           stroke-miterlimit="10" />
        <path
           id="dark-southwest_1_"
           d="m 158.12,158.12 27.279,58.5 -35.41,-36.161"
           inkscape:connector-curvature="0"
           stroke-miterlimit="10" />
        <path
           id="dark-northwest_1_"
           d="m 158.12,158.12 -58.5,27.279 36.162,-35.41"
           inkscape:connector-curvature="0"
           stroke-miterlimit="10" />
      </g>
      <path
         id="light-northeast"
         d="m 111.55106,16.349642 4.23032,-4.23032 -4.23032,2.027028"
         inkscape:connector-curvature="0"
         fill="url(#light-northeast_3_)"
         style="fill:url(#light-northeast_3_);stroke:#000000;stroke-width:0.0308461;stroke-linecap:round;stroke-linejoin:round" />
      <path
         id="light-southeast"
         d="m 111.55106,16.349642 4.23032,4.230319 -2.02703,-4.230319"
         inkscape:connector-curvature="0"
         fill="url(#light-southeast_3_)"
         style="fill:url(#light-southeast_3_);stroke:#000000;stroke-width:0.0308461;stroke-linecap:round;stroke-linejoin:round" />
      <path
         id="light-southwest"
         d="m 111.55106,16.349642 -4.23032,4.230319 4.23032,-2.027028"
         inkscape:connector-curvature="0"
         fill="url(#light-southwest_3_)"
         style="fill:url(#light-southwest_3_);stroke:#000000;stroke-width:0.0308461;stroke-linecap:round;stroke-linejoin:round" />
      <path
         id="light-northwest"
         d="m 111.55106,16.349642 -4.23032,-4.23032 2.02703,4.23032"
         inkscape:connector-curvature="0"
         fill="url(#light-northwest_3_)"
         style="fill:url(#light-northwest_3_);stroke:#000000;stroke-width:0.0308461;stroke-linecap:round;stroke-linejoin:round" />
      <path
         id="dark-northeast"
         d="m 111.55106,16.349642 4.23032,-4.23032 -2.02703,4.23032"
         inkscape:connector-curvature="0"
         stroke-miterlimit="10"
         style="stroke:#000000;stroke-width:0.0308461;stroke-linecap:round;stroke-linejoin:round" />
      <path
         id="dark-southeast"
         d="m 111.55106,16.349642 4.23032,4.230319 -4.23032,-2.027028"
         inkscape:connector-curvature="0"
         stroke-miterlimit="10"
         style="stroke:#000000;stroke-width:0.0308461;stroke-linecap:round;stroke-linejoin:round" />
      <path
         id="dark-southwest"
         d="m 111.55106,16.349642 -4.23032,4.230319 2.02703,-4.230319"
         inkscape:connector-curvature="0"
         stroke-miterlimit="10"
         style="stroke:#000000;stroke-width:0.0308461;stroke-linecap:round;stroke-linejoin:round" />
      <path
         id="dark-northwest"
         d="m 111.55106,16.349642 -4.23032,-4.23032 4.23032,2.027028"
         inkscape:connector-curvature="0"
         stroke-miterlimit="10"
         style="stroke:#000000;stroke-width:0.0308461;stroke-linecap:round;stroke-linejoin:round" />
      <path
         id="light-north"
         d="m 111.55107,16.349642 1.28386,-1.283868 -1.28386,-7.0612705"
         inkscape:connector-curvature="0"
         style="stroke-width:0.0534944" />
      <path
         id="light-east"
         d="m 111.55107,16.349642 -1.28387,-1.283868 -7.06128,1.283868"
         inkscape:connector-curvature="0"
         style="stroke-width:0.0534944" />
      <path
         id="light-south"
         d="m 111.55107,16.349642 -1.28387,1.283867 1.28387,7.061271"
         inkscape:connector-curvature="0"
         style="stroke-width:0.0534944" />
      <path
         id="light-west"
         d="m 111.55107,16.349642 1.28386,1.283867 7.06128,-1.283867"
         fill="url(#light-west_1_)"
         inkscape:connector-curvature="0"
         style="fill:#cccccc;stroke-width:0.0534944" />
      <path
         id="dark-north"
         d="m 111.55107,16.349642 -1.28387,-1.283868 1.28387,-7.0612705"
         fill="url(#dark-north_1_)"
         inkscape:connector-curvature="0"
         style="fill:#cccccc;stroke-width:0.0534944" />
      <path
         id="dark-east"
         d="m 111.55107,16.349642 -1.28387,1.283867 -7.06128,-1.283867"
         fill="url(#dark-east_1_)"
         inkscape:connector-curvature="0"
         style="fill:#cccccc;stroke-width:0.0534944" />
      <path
         id="dark-south"
         d="m 111.55107,16.349642 1.28386,1.283867 -1.28386,7.061271"
         fill="url(#dark-south_1_)"
         inkscape:connector-curvature="0"
         style="fill:#cccccc;stroke-width:0.0534944" />
      <path
         id="dark-west"
         d="m 111.55107,16.349642 1.28386,-1.283868 7.06128,1.283868"
         inkscape:connector-curvature="0"
         style="stroke-width:0.0534944" />
      <circle
         cy="16.34964"
         cx="111.55106"
         r="2.538192"
         fill="#ffffff"
         id="circle102"
         style="stroke-width:0.0705052" />
      <circle
         cy="16.34964"
         cx="111.55106"
         r="2.2843728"
         fill="url(#SVGID_3_)"
         id="circle109"
         style="fill:#b3b3b3;stroke-width:0.0705052" />
      <circle
         cy="16.34964"
         cx="111.55106"
         r="1.269096"
         fill="url(#SVGID_4_)"
         id="circle116"
         style="fill:#808080;stroke-width:0.0705052" />
    </g>
    <text
       xml:space="preserve"
       style="font-size:2.64583px;line-height:1.25;font-family:'Liberation Sans';-inkscape-font-specification:'Liberation Sans, Normal';letter-spacing:0px;word-spacing:0px;fill:#333333;stroke:none;stroke-width:0.264583"
       x="118.58176"
       y="28.943235"
       id="text45308"><tspan
         sodipodi:role="line"
         id="tspan45306"
         style="font-size:2.64583px;fill:#333333;stroke:none;stroke-width:0.264583"
         x="118.58176"
         y="28.943235">90</tspan></text>
    <text
       xml:space="preserve"
       style="font-size:2.64583px;line-height:1.25;font-family:'Liberation Sans';-inkscape-font-specification:'Liberation Sans, Normal';letter-spacing:0px;word-spacing:0px;fill:#333333;stroke:none;stroke-width:0.264583"
       x="96.844635"
       y="28.943235"
       id="text45538"><tspan
         sodipodi:role="line"
         id="tspan45536"
         style="font-size:2.64583px;fill:#333333;stroke:none;stroke-width:0.264583"
         x="96.844635"
         y="28.943235">-90</tspan></text>
    <text
       xml:space="preserve"
       style="font-size:2.64583px;line-height:1.25;font-family:'Liberation Sans';-inkscape-font-specification:'Liberation Sans, Normal';letter-spacing:0px;word-spacing:0px;fill:#333333;stroke:none;stroke-width:0.264583"
       x="108.82527"
       y="18.820774"
       id="text47452"><tspan
         sodipodi:role="line"
         id="tspan47450"
         style="font-size:2.64583px;fill:#333333;stroke:none;stroke-width:0.264583"
         x="108.82527"
         y="18.820774">0</tspan></text>
    <text
       xml:space="preserve"
       style="font-size:2.64583px;line-height:1.25;font-family:'Liberation Sans';-inkscape-font-specification:'Liberation Sans, Normal';letter-spacing:0px;word-spacing:0px;fill:#333333;stroke:none;stroke-width:0.264583"
       x="107.3047"
       y="39.006424"
       id="text48284"><tspan
         sodipodi:role="line"
         id="tspan48282"
         style="font-size:2.64583px;fill:#333333;stroke:none;stroke-width:0.264583"
         x="107.3047"
         y="39.006424">180</tspan></text>
    <g
       aria-label="-240"
       id="text1070"
       style="font-size:2.64583px;line-height:1.25;font-family:'Liberation Sans';-inkscape-font-specification:'Liberation Sans, Normal';letter-spacing:0px;word-spacing:0px;fill:#333333;stroke-width:0.264583"
       transform="translate(3.7041668)">
      <path
         d="m -0.02987196,49.876518 v -0.206706 h 0.64595457 v 0.206706 z"
         id="path1145" />
      <path
         d="m 0.866713,50.475964 v -0.164073 q 0.0658874,-0.151153 0.1601967,-0.266133 0.095601,-0.116272 0.200246,-0.209289 0.1046446,-0.09431 0.2067054,-0.174408 0.1033527,-0.0801 0.1860349,-0.160197 0.082682,-0.0801 0.1330667,-0.167948 0.051676,-0.08785 0.051676,-0.198954 0,-0.149862 -0.08785,-0.232544 -0.08785,-0.08268 -0.2441708,-0.08268 -0.1485696,0 -0.2454627,0.08139 -0.095601,0.0801 -0.1123961,0.226084 l -0.23771132,-0.02196 q 0.0258382,-0.218333 0.18474302,-0.347524 0.1601967,-0.12919 0.4108271,-0.12919 0.2751766,0 0.4224543,0.130482 0.1485695,0.129191 0.1485695,0.368194 0,0.105937 -0.049092,0.210582 -0.047801,0.104644 -0.1434019,0.209289 -0.095601,0.104645 -0.3656103,0.324269 -0.1485696,0.12144 -0.2364194,0.219625 -0.08785,0.09689 -0.1266071,0.187326 h 0.9495532 v 0.197663 z"
         id="path1147" />
      <path
         d="m 3.343303,50.063845 v 0.412119 H 3.1236784 V 50.063845 H 2.2658508 V 49.882977 L 3.0991321,48.655664 H 3.343303 v 1.224729 h 0.255798 v 0.183452 z M 3.1236784,48.917921 q -0.00258,0.0078 -0.036173,0.06847 -0.03359,0.06072 -0.050385,0.08527 l -0.4663792,0.687296 -0.069763,0.0956 -0.020671,0.02584 h 0.6433707 z"
         id="path1149" />
      <path
         d="m 5.0447472,49.565168 q 0,0.456044 -0.1614886,0.696339 -0.1601968,0.240295 -0.4741307,0.240295 -0.3139339,0 -0.4715468,-0.239003 -0.1576129,-0.239004 -0.1576129,-0.697631 0,-0.468963 0.1524453,-0.702799 0.1537371,-0.233835 0.4844659,-0.233835 0.3216854,0 0.4741306,0.236419 0.1537372,0.236419 0.1537372,0.700215 z m -0.2364193,0 q 0,-0.394033 -0.091726,-0.571024 -0.090434,-0.176992 -0.2997229,-0.176992 -0.2144569,0 -0.3087663,0.174408 -0.093017,0.174408 -0.093017,0.573608 0,0.387572 0.094309,0.567148 0.095601,0.179575 0.3023067,0.179575 0.2054136,0 0.3010149,-0.183451 0.095601,-0.183451 0.095602,-0.563272 z"
         id="path1151" />
    </g>
    <g
       aria-label="240"
       id="text1074"
       style="font-size:2.64583px;line-height:1.25;font-family:'Liberation Sans';-inkscape-font-specification:'Liberation Sans, Normal';letter-spacing:0px;word-spacing:0px;fill:#333333;stroke-width:0.264583"
       transform="translate(-3.7041668)">
      <path
         d="m 123.19942,50.475964 v -0.164073 q 0.0659,-0.151153 0.1602,-0.266133 0.0956,-0.116272 0.20024,-0.209289 0.10465,-0.09431 0.20671,-0.174408 0.10335,-0.0801 0.18603,-0.160197 0.0827,-0.0801 0.13307,-0.167948 0.0517,-0.08785 0.0517,-0.198954 0,-0.149862 -0.0879,-0.232544 -0.0878,-0.08268 -0.24418,-0.08268 -0.14856,0 -0.24546,0.08139 -0.0956,0.0801 -0.11239,0.226084 l -0.23772,-0.02196 q 0.0258,-0.218333 0.18475,-0.347524 0.16019,-0.12919 0.41082,-0.12919 0.27518,0 0.42246,0.130482 0.14857,0.129191 0.14857,0.368194 0,0.105937 -0.0491,0.210582 -0.0478,0.104644 -0.14341,0.209289 -0.0956,0.104645 -0.36561,0.324269 -0.14857,0.12144 -0.23642,0.219625 -0.0878,0.09689 -0.1266,0.187326 h 0.94955 v 0.197663 z"
         id="path1138" />
      <path
         d="m 125.67601,50.063845 v 0.412119 h -0.21963 v -0.412119 h -0.85782 v -0.180868 l 0.83328,-1.227313 h 0.24417 v 1.224729 h 0.2558 v 0.183452 z m -0.21963,-1.145924 q -0.003,0.0078 -0.0362,0.06847 -0.0336,0.06072 -0.0504,0.08527 l -0.46638,0.687296 -0.0698,0.0956 -0.0207,0.02584 h 0.64337 z"
         id="path1140" />
      <path
         d="m 127.37745,49.565168 q 0,0.456044 -0.16148,0.696339 -0.1602,0.240295 -0.47414,0.240295 -0.31393,0 -0.47154,-0.239003 -0.15762,-0.239004 -0.15762,-0.697631 0,-0.468963 0.15245,-0.702799 0.15374,-0.233835 0.48447,-0.233835 0.32168,0 0.47413,0.236419 0.15373,0.236419 0.15373,0.700215 z m -0.23642,0 q 0,-0.394033 -0.0917,-0.571024 -0.0904,-0.176992 -0.29972,-0.176992 -0.21446,0 -0.30877,0.174408 -0.093,0.174408 -0.093,0.573608 0,0.387572 0.0943,0.567148 0.0956,0.179575 0.30231,0.179575 0.20541,0 0.30101,-0.183451 0.0956,-0.183451 0.0956,-0.563272 z"
         id="path1142" />
    </g>
    <g
       aria-label="180"
       id="text1078"
       style="font-size:2.64583px;line-height:1.25;font-family:'Liberation Sans';-inkscape-font-specification:'Liberation Sans, Normal';letter-spacing:0px;word-spacing:0px;fill:#333333;stroke-width:0.264583"
       transform="translate(0,1.5875)">
      <path
         d="M 64.292206,2.9722793 V 2.7746172 h 0.463795 V 1.3741877 L 64.345174,1.6674511 V 1.4478265 L 64.77538,1.1519793 h 0.214456 v 1.6226379 h 0.443125 v 0.1976621 z"
         id="path1131" />
      <path
         d="m 66.918657,2.464559 q 0,0.2519223 -0.160197,0.3927404 -0.160197,0.1408181 -0.45992,0.1408181 -0.291971,0 -0.457335,-0.1382343 -0.164073,-0.1382343 -0.164073,-0.3927404 0,-0.1782834 0.102061,-0.2997229 0.102061,-0.1214394 0.260966,-0.1472776 v -0.00517 q -0.14857,-0.034882 -0.235128,-0.1511533 -0.08527,-0.1162719 -0.08527,-0.2725929 0,-0.2079973 0.155029,-0.3371882 0.156321,-0.129191 0.418579,-0.129191 0.268717,0 0.423746,0.1266071 0.156321,0.1266071 0.156321,0.342356 0,0.156321 -0.08656,0.2725928 -0.08656,0.1162718 -0.236419,0.1459857 v 0.00517 q 0.174407,0.028422 0.271301,0.1485695 0.09689,0.1188556 0.09689,0.298431 z M 66.631853,1.6067314 q 0,-0.3087663 -0.33848,-0.3087663 -0.164073,0 -0.250631,0.077514 -0.08527,0.077515 -0.08527,0.2312518 0,0.156321 0.08785,0.2390031 0.08914,0.08139 0.250631,0.08139 0.164072,0 0.249338,-0.074931 0.08656,-0.076223 0.08656,-0.2454627 z m 0.04522,0.8358652 q 0,-0.1692401 -0.100769,-0.2545061 -0.100769,-0.086558 -0.282928,-0.086558 -0.176992,0 -0.276469,0.093017 -0.09948,0.091726 -0.09948,0.2532142 0,0.3759456 0.383697,0.3759456 0.189911,0 0.282928,-0.090434 0.09302,-0.091725 0.09302,-0.2906795 z"
         id="path1133" />
      <path
         d="m 68.401769,2.0614834 q 0,0.4560439 -0.161489,0.696339 -0.160197,0.2402951 -0.474131,0.2402951 -0.313934,0 -0.471547,-0.2390032 -0.157612,-0.2390032 -0.157612,-0.6976309 0,-0.468963 0.152445,-0.7027986 0.153737,-0.2338356 0.484466,-0.2338356 0.321685,0 0.47413,0.2364194 0.153738,0.2364194 0.153738,0.7002148 z m -0.23642,0 q 0,-0.3940323 -0.09173,-0.5710239 -0.09043,-0.1769915 -0.299723,-0.1769915 -0.214457,0 -0.308767,0.1744077 -0.09302,0.1744077 -0.09302,0.5736077 0,0.3875727 0.09431,0.5671481 0.0956,0.1795753 0.302307,0.1795753 0.205414,0 0.301015,-0.183451 0.0956,-0.1834511 0.0956,-0.5632724 z"
         id="path1135" />
    </g>
    <g
       aria-label="-180"
       id="text1082"
       style="font-size:2.64583px;line-height:1.25;font-family:'Liberation Sans';-inkscape-font-specification:'Liberation Sans, Normal';letter-spacing:0px;word-spacing:0px;fill:#333333;stroke-width:0.264583"
       transform="translate(0,-4.2333335)">
      <path
         d="m 64.292208,96.385471 v -0.206706 h 0.645955 v 0.206706 z"
         id="path1122" />
      <path
         d="m 65.257264,96.984917 v -0.197662 h 0.463796 v -1.40043 l -0.410827,0.293263 v -0.219624 l 0.430205,-0.295847 h 0.214457 v 1.622638 h 0.443125 v 0.197662 z"
         id="path1124" />
      <path
         d="m 67.883716,96.477196 q 0,0.251923 -0.160197,0.392741 -0.160197,0.140818 -0.45992,0.140818 -0.291971,0 -0.457335,-0.138234 -0.164073,-0.138235 -0.164073,-0.392741 0,-0.178283 0.102061,-0.299723 0.102061,-0.121439 0.260966,-0.147277 v -0.0052 q -0.14857,-0.03488 -0.235128,-0.151153 -0.08527,-0.116272 -0.08527,-0.272593 0,-0.207998 0.155029,-0.337188 0.156321,-0.129191 0.418579,-0.129191 0.268717,0 0.423746,0.126607 0.156321,0.126607 0.156321,0.342356 0,0.156321 -0.08656,0.272592 -0.08656,0.116272 -0.236419,0.145986 v 0.0052 q 0.174407,0.02842 0.271301,0.148569 0.09689,0.118856 0.09689,0.298431 z m -0.286804,-0.857827 q 0,-0.308767 -0.33848,-0.308767 -0.164073,0 -0.250631,0.07751 -0.08527,0.07752 -0.08527,0.231252 0,0.156321 0.08785,0.239003 0.08914,0.08139 0.250631,0.08139 0.164072,0 0.249338,-0.07493 0.08656,-0.07622 0.08656,-0.245462 z m 0.04522,0.835865 q 0,-0.16924 -0.100769,-0.254506 -0.100769,-0.08656 -0.282928,-0.08656 -0.176992,0 -0.276469,0.09302 -0.09948,0.09173 -0.09948,0.253215 0,0.375945 0.383697,0.375945 0.189911,0 0.282928,-0.09043 0.09302,-0.09172 0.09302,-0.290679 z"
         id="path1126" />
      <path
         d="m 69.366827,96.074121 q 0,0.456044 -0.161488,0.696339 -0.160197,0.240295 -0.474131,0.240295 -0.313934,0 -0.471547,-0.239003 -0.157613,-0.239004 -0.157613,-0.697631 0,-0.468963 0.152446,-0.702799 0.153737,-0.233835 0.484466,-0.233835 0.321685,0 0.47413,0.236419 0.153737,0.236419 0.153737,0.700215 z m -0.236419,0 q 0,-0.394033 -0.09173,-0.571024 -0.09043,-0.176992 -0.299722,-0.176992 -0.214457,0 -0.308767,0.174408 -0.09302,0.174408 -0.09302,0.573608 0,0.387572 0.09431,0.567148 0.0956,0.179575 0.302307,0.179575 0.205413,0 0.301015,-0.183451 0.0956,-0.183451 0.0956,-0.563272 z"
         id="path1128" />
    </g>
    <g
       aria-label="90"
       id="text1086"
       style="font-size:2.64583px;line-height:1.25;font-family:'Liberation Sans';-inkscape-font-specification:'Liberation Sans, Normal';letter-spacing:0px;word-spacing:0px;fill:#333333;stroke-width:0.264583">
      <path
         d="m 119.92793,27.996266 q 0,0.468963 -0.17183,0.720885 -0.17053,0.251923 -0.48705,0.251923 -0.21316,0 -0.34235,-0.08914 -0.1279,-0.09043 -0.18345,-0.29068 l 0.2222,-0.03488 q 0.0698,0.227376 0.30748,0.227376 0.20024,0 0.31006,-0.186035 0.10981,-0.186035 0.11498,-0.530975 -0.0517,0.116272 -0.177,0.187327 -0.12531,0.06976 -0.27517,0.06976 -0.24546,0 -0.39274,-0.167948 -0.14728,-0.167948 -0.14728,-0.445709 0,-0.285512 0.1602,-0.448292 0.16019,-0.164073 0.44571,-0.164073 0.30359,0 0.45991,0.224793 0.15633,0.224792 0.15633,0.675668 z m -0.25322,-0.224792 q 0,-0.219625 -0.10077,-0.352691 -0.10077,-0.134359 -0.27001,-0.134359 -0.16794,0 -0.26484,0.11498 -0.0969,0.113688 -0.0969,0.308766 0,0.198954 0.0969,0.315226 0.0969,0.11498 0.26226,0.11498 0.10077,0 0.18733,-0.04522 0.0866,-0.04651 0.13565,-0.130483 0.0504,-0.08397 0.0504,-0.191202 z"
         id="path1117" />
      <path
         d="m 121.42137,28.032439 q 0,0.456044 -0.16149,0.696339 -0.16019,0.240296 -0.47413,0.240296 -0.31393,0 -0.47154,-0.239004 -0.15762,-0.239003 -0.15762,-0.697631 0,-0.468963 0.15245,-0.702798 0.15374,-0.233836 0.48447,-0.233836 0.32168,0 0.47413,0.23642 0.15373,0.236419 0.15373,0.700214 z m -0.23642,0 q 0,-0.394032 -0.0917,-0.571023 -0.0904,-0.176992 -0.29972,-0.176992 -0.21446,0 -0.30877,0.174408 -0.093,0.174408 -0.093,0.573607 0,0.387573 0.0943,0.567149 0.0956,0.179575 0.30231,0.179575 0.20541,0 0.30101,-0.183451 0.0956,-0.183451 0.0956,-0.563273 z"
         id="path1119" />
    </g>
    <g
       aria-label="-90"
       id="text1090"
       style="font-size:2.64583px;line-height:1.25;font-family:'Liberation Sans';-inkscape-font-specification:'Liberation Sans, Normal';letter-spacing:0px;word-spacing:0px;fill:#333333;stroke-width:0.264583">
      <path
         d="m 96.962199,28.34379 v -0.206706 h 0.645954 v 0.206706 z"
         id="path1110" />
      <path
         d="m 99.071886,27.996266 q 0,0.468963 -0.171824,0.720885 -0.170532,0.251923 -0.487049,0.251923 -0.213165,0 -0.342356,-0.08914 -0.127899,-0.09043 -0.183451,-0.29068 l 0.222208,-0.03488 q 0.06976,0.227376 0.307474,0.227376 0.200246,0 0.310059,-0.186035 0.109812,-0.186035 0.11498,-0.530975 -0.05168,0.116272 -0.176992,0.187327 -0.125315,0.06976 -0.275177,0.06976 -0.245462,0 -0.39274,-0.167948 -0.147278,-0.167948 -0.147278,-0.445709 0,-0.285512 0.160197,-0.448292 0.160197,-0.164073 0.445709,-0.164073 0.303598,0 0.459919,0.224793 0.156321,0.224792 0.156321,0.675668 z m -0.253214,-0.224792 q 0,-0.219625 -0.100769,-0.352691 -0.100769,-0.134359 -0.270009,-0.134359 -0.167948,0 -0.264841,0.11498 -0.09689,0.113688 -0.09689,0.308766 0,0.198954 0.09689,0.315226 0.09689,0.11498 0.262257,0.11498 0.100769,0 0.187327,-0.04522 0.08656,-0.04651 0.135651,-0.130483 0.05038,-0.08397 0.05038,-0.191202 z"
         id="path1112" />
      <path
         d="m 100.56533,28.032439 q 0,0.456044 -0.16149,0.696339 -0.16019,0.240296 -0.474126,0.240296 -0.313934,0 -0.471547,-0.239004 -0.157613,-0.239003 -0.157613,-0.697631 0,-0.468963 0.152446,-0.702798 0.153737,-0.233836 0.484466,-0.233836 0.321684,0 0.474134,0.23642 0.15373,0.236419 0.15373,0.700214 z m -0.23642,0 q 0,-0.394032 -0.0917,-0.571023 -0.0904,-0.176992 -0.299724,-0.176992 -0.214457,0 -0.308767,0.174408 -0.09302,0.174408 -0.09302,0.573607 0,0.387573 0.09431,0.567149 0.0956,0.179575 0.302307,0.179575 0.205412,0 0.301012,-0.183451 0.0956,-0.183451 0.0956,-0.563273 z"
         id="path1114" />
    </g>
    <g
       aria-label="0"
       id="text1094"
       style="font-size:2.64583px;line-height:1.25;font-family:'Liberation Sans';-inkscape-font-specification:'Liberation Sans, Normal';letter-spacing:0px;word-spacing:0px;fill:#333333;stroke-width:0.264583">
      <path
         d="m 110.1934,17.909978 q 0,0.456044 -0.16149,0.696339 -0.16019,0.240295 -0.47413,0.240295 -0.31393,0 -0.47154,-0.239003 -0.15762,-0.239003 -0.15762,-0.697631 0,-0.468963 0.15245,-0.702798 0.15374,-0.233836 0.48447,-0.233836 0.32168,0 0.47413,0.236419 0.15373,0.23642 0.15373,0.700215 z m -0.23642,0 q 0,-0.394032 -0.0917,-0.571024 -0.0904,-0.176991 -0.29972,-0.176991 -0.21446,0 -0.30877,0.174407 -0.093,0.174408 -0.093,0.573608 0,0.387573 0.0943,0.567148 0.0956,0.179576 0.30231,0.179576 0.20541,0 0.30101,-0.183451 0.0956,-0.183452 0.0956,-0.563273 z"
         id="path1107" />
    </g>
    <g
       aria-label="180"
       id="text1098"
       style="font-size:2.64583px;line-height:1.25;font-family:'Liberation Sans';-inkscape-font-specification:'Liberation Sans, Normal';letter-spacing:0px;word-spacing:0px;fill:#333333;stroke-width:0.264583">
      <path
         d="m 107.50624,39.006424 v -0.197662 h 0.4638 v -1.40043 l -0.41083,0.293264 v -0.219625 l 0.4302,-0.295847 h 0.21446 v 1.622638 h 0.44313 v 0.197662 z"
         id="path1100" />
      <path
         d="m 110.13269,38.498704 q 0,0.251922 -0.16019,0.39274 -0.1602,0.140818 -0.45992,0.140818 -0.29198,0 -0.45734,-0.138234 -0.16407,-0.138234 -0.16407,-0.392741 0,-0.178283 0.10206,-0.299722 0.10206,-0.12144 0.26096,-0.147278 v -0.0052 q -0.14857,-0.03488 -0.23512,-0.151153 -0.0853,-0.116272 -0.0853,-0.272593 0,-0.207997 0.15503,-0.337188 0.15632,-0.129191 0.41858,-0.129191 0.26871,0 0.42374,0.126607 0.15633,0.126607 0.15633,0.342356 0,0.156321 -0.0866,0.272593 -0.0866,0.116272 -0.23642,0.145985 v 0.0052 q 0.17441,0.02842 0.2713,0.14857 0.0969,0.118855 0.0969,0.298431 z m -0.2868,-0.857828 q 0,-0.308766 -0.33848,-0.308766 -0.16407,0 -0.25063,0.07751 -0.0853,0.07751 -0.0853,0.231252 0,0.156321 0.0879,0.239003 0.0891,0.08139 0.25063,0.08139 0.16407,0 0.24934,-0.07493 0.0866,-0.07622 0.0866,-0.245463 z m 0.0452,0.835865 q 0,-0.16924 -0.10076,-0.254506 -0.10077,-0.08656 -0.28293,-0.08656 -0.17699,0 -0.27647,0.09302 -0.0995,0.09172 -0.0995,0.253214 0,0.375945 0.3837,0.375945 0.18991,0 0.28293,-0.09043 0.093,-0.09173 0.093,-0.29068 z"
         id="path1102" />
      <path
         d="m 111.6158,38.095628 q 0,0.456044 -0.16149,0.696339 -0.16019,0.240295 -0.47413,0.240295 -0.31393,0 -0.47154,-0.239003 -0.15762,-0.239003 -0.15762,-0.697631 0,-0.468963 0.15245,-0.702799 0.15374,-0.233835 0.48447,-0.233835 0.32168,0 0.47413,0.236419 0.15373,0.23642 0.15373,0.700215 z m -0.23642,0 q 0,-0.394032 -0.0917,-0.571024 -0.0904,-0.176991 -0.29972,-0.176991 -0.21446,0 -0.30877,0.174407 -0.093,0.174408 -0.093,0.573608 0,0.387573 0.0943,0.567148 0.0956,0.179575 0.30231,0.179575 0.20541,0 0.30101,-0.183451 0.0956,-0.183451 0.0956,-0.563272 z"
         id="path1104" />
    </g>
  </g>
</svg>
